<?xml version="1.0" encoding="utf-8"?>
<!-- Generator: Adobe Illustrator 22.1.0, SVG Export Plug-In . SVG Version: 6.00 Build 0)  -->
<svg version="1.1" id="Capa_1" xmlns="http://www.w3.org/2000/svg" xmlns:xlink="http://www.w3.org/1999/xlink" x="0px" y="0px"
	 viewBox="0 0 171.5 172.2" style="enable-background:new 0 0 171.5 172.2;" xml:space="preserve">
<style type="text/css">
	.st0{fill:#C5461A;}
	.st1{fill:#FFFFFF;}
	.st2{font-family:'FranklinGothic-Book';}
	.st3{font-size:40.568px;}
	.st4{font-family:'FranklinGothic-Demi';}
	.st5{font-size:66.519px;}
</style>
<g>
	<g>
		<defs>
			<path id="SVGID_1_" d="M156.1,172.2H13.6c-6.6,0-12-5.4-12-12V17.7c0-6.6,5.4-12,12-12h142.5c6.6,0,12,5.4,12,12v142.5
				C168.1,166.8,162.7,172.2,156.1,172.2z"/>
		</defs>
		<clipPath id="SVGID_2_">
			<use xlink:href="#SVGID_1_"  style="overflow:visible;"/>
		</clipPath>
		<g style="clip-path:url(#SVGID_2_);">
			
				<image style="overflow:visible;" width="198" height="198" xlink:href="../../../../../qr_img.png"  transform="matrix(0.8662 0 0 0.8662 0 0)">
			</image>
		</g>
	</g>
	<g>
		<g>
			
				<image style="overflow:visible;opacity:0.25;" width="811" height="534" xlink:href="D027937.png"  transform="matrix(0.24 0 0 0.24 -3.6426 21.7256)">
			</image>
			<g>
				<g>
					<g>
						<path class="st0" d="M21.3,72.9c-1.4,0-2.5-1.1-2.5-2.5v-27c0-1.4,1.1-2.5,2.5-2.5H30c3.5,0,6.2,1.1,8,3.4
							c1.7,2.1,2.5,4.5,2.5,7.1c0,3-0.9,5.5-2.8,7.5c-1.9,2-4.4,3.1-7.4,3.1h-3.5v8.5c0,1.4-1.1,2.5-2.5,2.5H21.3z M30,54.1
							c1,0,1.4-0.3,1.7-0.6c0.3-0.3,0.7-0.9,0.7-2.1c0-0.8-0.2-1.5-0.7-2.1c-0.2-0.3-0.6-0.6-1.5-0.6h-3.4v5.4H30z"/>
						<path class="st1" d="M30,43.4c2.7,0,4.8,0.8,6.1,2.4c1.3,1.6,2,3.5,2,5.6c0,2.3-0.7,4.2-2.1,5.8c-1.4,1.5-3.3,2.3-5.6,2.3h-6
							v11h-3.1v-27H30 M24.4,56.6H30c1.5,0,2.6-0.5,3.5-1.4c0.9-1,1.3-2.2,1.3-3.8c0-1.3-0.4-2.5-1.2-3.6c-0.8-1.1-1.9-1.6-3.5-1.6
							h-5.9V56.6 M30,38.4h-8.8c-2.8,0-5,2.2-5,5v27c0,2.8,2.2,5,5,5h3.1c2.8,0,5-2.2,5-5v-6h1c3.7,0,6.9-1.3,9.2-3.9
							c2.3-2.4,3.5-5.6,3.5-9.2c0-3.2-1-6.2-3-8.7C38.4,40.7,35.4,38.4,30,38.4L30,38.4z M29.4,51.2h0.5c0,0.1,0,0.1,0,0.2
							c0,0.1,0,0.2,0,0.2h-0.5V51.2L29.4,51.2z"/>
					</g>
					<g>
						<path class="st0" d="M42,72.9c-1.4,0-2.5-1.1-2.5-2.5v-27c0-1.4,1.1-2.5,2.5-2.5h15.6c1.4,0,2.5,1.1,2.5,2.5v3
							c0,1.4-1.1,2.5-2.5,2.5h-10v3.6H55c1.4,0,2.5,1.1,2.5,2.5v2.8c0,1.4-1.1,2.5-2.5,2.5h-7.5V65H58c1.4,0,2.5,1.1,2.5,2.5v3
							c0,1.4-1.1,2.5-2.5,2.5H42z"/>
						<path class="st1" d="M57.6,43.4v3H45.1V55h10v2.8h-10v9.7H58v3H42v-27H57.6 M57.6,38.4H42c-2.8,0-5,2.2-5,5v27
							c0,2.8,2.2,5,5,5h16c2.8,0,5-2.2,5-5v-3c0-2.8-2.2-5-5-5h-1.4c2-0.7,3.4-2.5,3.4-4.7V55c0-1.4-0.6-2.7-1.6-3.7
							c2.4-0.4,4.2-2.5,4.2-4.9v-3C62.6,40.6,60.4,38.4,57.6,38.4L57.6,38.4z"/>
					</g>
					<g>
						<path class="st0" d="M62.3,72.9c-1.4,0-2.5-1.1-2.5-2.5v-27c0-1.4,1.1-2.5,2.5-2.5h8.3c4.3,0,7.7,1.7,10.1,4.9
							c2.3,3,3.4,6.7,3.4,11c0,4.3-1.1,8.1-3.3,11.1c-2.3,3.2-5.5,5-9.2,5H62.3z M70.4,65.1c1.8,0,3.1-0.6,4-1.9
							c1.1-1.6,1.6-3.8,1.6-6.5c0-2.2-0.5-4.1-1.6-5.9c-0.9-1.4-2.1-2-4-2h-2.5v16.3H70.4z"/>
						<path class="st1" d="M70.6,43.4c3.5,0,6.2,1.3,8.1,3.9c1.9,2.6,2.9,5.8,2.9,9.5c0,3.8-0.9,7-2.8,9.7c-1.9,2.6-4.3,3.9-7.2,3.9
							h-9.3v-27H70.6 M65.4,67.6h5c2.7,0,4.7-1,6-3c1.4-2,2.1-4.7,2.1-7.9c0-2.7-0.7-5.1-2-7.2c-1.3-2.1-3.4-3.2-6.1-3.2h-5V67.6
							 M70.6,38.4h-8.3c-2.8,0-5,2.2-5,5v27c0,2.8,2.2,5,5,5h9.3c4.5,0,8.4-2.1,11.3-6c2.5-3.5,3.8-7.7,3.8-12.6
							c0-4.8-1.3-9.1-3.9-12.5C79.9,40.4,75.7,38.4,70.6,38.4L70.6,38.4z M70.4,51.2L70.4,51.2c1.4,0,1.7,0.4,1.9,0.8
							c0.8,1.3,1.2,2.8,1.2,4.6c0,2.2-0.4,4-1.2,5.1c-0.3,0.5-0.7,0.8-1.9,0.8h0V51.2L70.4,51.2z"/>
					</g>
					<g>
						<path class="st0" d="M86.7,72.9c-1.4,0-2.5-1.1-2.5-2.5v-27c0-0.3,0-0.6,0.1-0.8c-0.1-0.2-0.3-0.3-0.4-0.5l-0.8-1.6
							c-0.6-1.1-0.2-2.5,0.9-3.2l7.2-4.5c0.4-0.3,0.9-0.4,1.3-0.4c0.2,0,0.5,0,0.7,0.1c0.7,0.2,1.3,0.7,1.6,1.4l1.1,2.4
							c0.6,1.2,0.1,2.7-1.2,3.3l-3.7,1.9c0.7,0.4,1.2,1.2,1.2,2.1v27c0,1.4-1.1,2.5-2.5,2.5H86.7z"/>
						<path class="st1" d="M92.6,34.8l1.1,2.4l-7.5,3.7l-0.8-1.6L92.6,34.8 M89.7,43.4v27h-3.1v-27H89.7 M92.6,29.8
							c-0.9,0-1.9,0.3-2.7,0.8l-7.2,4.5c-2.2,1.4-2.9,4.1-1.8,6.4l0.8,1.6c0,0.1,0,0.2,0,0.3v27c0,2.8,2.2,5,5,5h3.1
							c2.8,0,5-2.2,5-5v-27c0-0.4,0-0.7-0.1-1.1l1.3-0.6c2.4-1.2,3.4-4.1,2.3-6.6l-1.1-2.4c-0.6-1.3-1.7-2.3-3.1-2.7
							C93.5,29.9,93.1,29.8,92.6,29.8L92.6,29.8z"/>
					</g>
					<g>
						<path class="st0" d="M109.2,72.9c-1.4,0-2.5-1.1-2.5-2.5V48.9h-4.6c-1.4,0-2.5-1.1-2.5-2.5v-3c0-1.4,1.1-2.5,2.5-2.5h17.3
							c1.4,0,2.5,1.1,2.5,2.5v3c0,1.4-1.1,2.5-2.5,2.5h-4.6v21.6c0,1.4-1.1,2.5-2.5,2.5H109.2z"/>
						<path class="st1" d="M119.4,43.4v3h-7.1v24.1h-3.1V46.4h-7.1v-3H119.4 M119.4,38.4h-17.3c-2.8,0-5,2.2-5,5v3c0,2.8,2.2,5,5,5
							h2.1v19.1c0,2.8,2.2,5,5,5h3.1c2.8,0,5-2.2,5-5V51.4h2.1c2.8,0,5-2.2,5-5v-3C124.4,40.6,122.1,38.4,119.4,38.4L119.4,38.4z"/>
					</g>
					<g>
						<path class="st0" d="M130.9,73.5c-3.6,0-6.4-1.1-8.2-3.2c-1.8-2.1-2.7-5.1-2.7-9.2V43.4c0-1.4,1.1-2.5,2.5-2.5h3.1
							c1.4,0,2.5,1.1,2.5,2.5V61c0,2.4,0.3,3.2,0.4,3.3c0.2,0.4,0.4,0.6,0.8,0.8c0.6,0.3,1.2,0.4,1.8,0.4c1.7,0,2.3-0.6,2.5-0.8
							c0.3-0.3,0.8-1.3,0.8-3.6V43.4c0-1.4,1.1-2.5,2.5-2.5h2.6c1.4,0,2.5,1.1,2.5,2.5V61c0,4.2-1.1,7.4-3.1,9.4
							C136.8,72.5,134.1,73.5,130.9,73.5z"/>
						<path class="st1" d="M139.5,43.4V61c0,3.5-0.8,6.1-2.4,7.6c-1.6,1.5-3.7,2.3-6.2,2.3c-2.9,0-5-0.8-6.4-2.4
							c-1.4-1.6-2.1-4.1-2.1-7.6V43.4h3.1V61c0,2.1,0.2,3.6,0.7,4.4c0.4,0.9,1.1,1.5,2,1.9c0.9,0.4,1.9,0.6,2.8,0.6
							c1.9,0,3.4-0.5,4.3-1.6c1-1.1,1.5-2.9,1.5-5.3V43.4H139.5 M139.5,38.4h-2.6c-2.8,0-5,2.2-5,5V61c0,1.1-0.1,1.7-0.2,1.9
							c-0.1,0-0.3,0.1-0.6,0.1c-0.2,0-0.3,0-0.4,0c-0.1-0.3-0.1-1-0.1-1.9V43.4c0-2.8-2.2-5-5-5h-3.1c-2.8,0-5,2.2-5,5V61
							c0,4.7,1.1,8.3,3.3,10.8c1.6,1.9,4.7,4.1,10.1,4.1c3.8,0,7.2-1.3,9.7-3.7c2.6-2.5,3.9-6.3,3.9-11.2V43.4
							C144.5,40.6,142.2,38.4,139.5,38.4L139.5,38.4z"/>
					</g>
					<g>
						<path class="st0" d="M44.2,124.5c-1.4,0-2.5-1.1-2.5-2.5v-18.1l-5.3,18.7c-0.3,1.1-1.3,1.8-2.4,1.8h-6.5
							c-1.1,0-2.1-0.8-2.4-1.8L20,104.3V122c0,1.4-1.1,2.5-2.5,2.5h-8c-1.4,0-2.5-1.1-2.5-2.5V77.7c0-1.4,1.1-2.5,2.5-2.5h14.8
							c1.1,0,2.1,0.8,2.4,1.9l4.8,17.8l5-17.8c0.3-1.1,1.3-1.8,2.4-1.8h14.8c1.4,0,2.5,1.1,2.5,2.5V122c0,1.4-1.1,2.5-2.5,2.5H44.2z
							"/>
						<path class="st1" d="M53.8,77.7V122h-9.6V85.8L34,122h-6.5l-10-36.2V122h-8V77.7h14.8l7.1,26.5l7.5-26.5H53.8 M53.8,72.7H38.9
							c-2.2,0-4.2,1.5-4.8,3.6l-2.5,9l-2.4-9c-0.6-2.2-2.6-3.7-4.8-3.7H9.6c-2.8,0-5,2.2-5,5V122c0,2.8,2.2,5,5,5h8
							c2.6,0,4.7-1.9,5-4.4l0.2,0.8c0.6,2.2,2.6,3.7,4.8,3.7H34c2.2,0,4.2-1.5,4.8-3.6l0.4-1.3c0,2.8,2.2,5,5,5h9.6c2.8,0,5-2.2,5-5
							V77.7C58.8,74.9,56.5,72.7,53.8,72.7L53.8,72.7z"/>
					</g>
					<g>
						<path class="st0" d="M61.8,124.5c-1.4,0-2.5-1.1-2.5-2.5V77.7c0-1.4,1.1-2.5,2.5-2.5h28.9c1.4,0,2.5,1.1,2.5,2.5v8.4
							c0,1.4-1.1,2.5-2.5,2.5H74v4.1h12.7c1.4,0,2.5,1.1,2.5,2.5v8.3c0,1.4-1.1,2.5-2.5,2.5H74v4.7h16.8c1.4,0,2.5,1.1,2.5,2.5v8.8
							c0,1.4-1.1,2.5-2.5,2.5H61.8z"/>
						<path class="st1" d="M90.8,77.7v8.4H71.5v9.1h15.2v8.3H71.5v9.7h19.3v8.8H61.8V77.7H90.8 M90.8,72.7H61.8c-2.8,0-5,2.2-5,5
							V122c0,2.8,2.2,5,5,5h28.9c2.8,0,5-2.2,5-5v-8.8c0-2.8-2.2-5-5-5h-2.4c1.9-0.7,3.2-2.5,3.2-4.7v-8.3c0-1.7-0.8-3.2-2.1-4.1
							h1.3c2.8,0,5-2.2,5-5v-8.4C95.8,74.9,93.5,72.7,90.8,72.7L90.8,72.7z"/>
					</g>
					<g>
						<path class="st0" d="M108.8,125.2c-4.7,0-8.7-1.2-12-3.6c-3.4-2.4-5.7-6-6.8-10.7c-0.3-1.3,0.5-2.7,1.8-3l8.8-2.2
							c0.2,0,0.4-0.1,0.6-0.1c0.5,0,0.9,0.1,1.3,0.4c0.6,0.3,1,0.9,1.1,1.6c0.7,3,2.5,4.3,5.8,4.3c1.5,0,2.6-0.3,3.2-0.8
							c0.6-0.6,0.7-1,0.7-1.4c0-0.6-0.2-0.8-0.4-1c-0.3-0.2-1.4-0.8-4.7-1.6c-5.6-1.3-9.6-3-12.2-5.4C93.4,99.2,92,95.6,92,91
							c0-4.6,1.6-8.5,4.6-11.7c3.1-3.2,7.3-4.8,12.5-4.8c9,0,15.1,4.2,17.7,12.1c0.4,1.3-0.3,2.7-1.5,3.1l-8.1,3
							c-0.3,0.1-0.6,0.2-0.9,0.2c0,0-0.1,0-0.1,0c1.4,0.4,2.6,0.9,3.5,1.4c2.3,1.1,4.3,2.9,5.9,5.4c1.6,2.5,2.4,5.3,2.4,8.3
							c0,4.7-1.7,8.7-4.9,12.1C119.8,123.4,115,125.2,108.8,125.2z M109.5,87.6c-3.1,0-3.1,0.9-3.1,1.5c0,0.4,0.1,0.7,0.4,1
							c0,0,0.6,0.6,3.5,1.2c1.8,0.4,3.4,0.8,4.9,1.2c-0.5-0.3-0.9-0.8-1.1-1.4C113.2,88.6,111.9,87.6,109.5,87.6z"/>
						<path class="st1" d="M109.1,77c7.9,0,13.1,3.5,15.3,10.4l-8.1,3c-1.1-3.5-3.4-5.3-6.9-5.3c-3.8,0-5.6,1.3-5.6,4
							c0,1.1,0.4,2,1.1,2.7c0.7,0.7,2.3,1.4,4.8,1.9c4.1,0.9,7.2,1.8,9.1,2.8c1.9,0.9,3.5,2.4,4.8,4.5c1.3,2.1,2,4.4,2,6.9
							c0,4-1.4,7.5-4.2,10.4c-2.8,2.9-7,4.4-12.5,4.4c-4.2,0-7.7-1-10.6-3.1c-2.9-2.1-4.8-5.1-5.8-9.2l8.8-2.2
							c1,4.1,3.7,6.2,8.2,6.2c2.2,0,3.8-0.5,4.9-1.4c1.1-0.9,1.6-2,1.6-3.3c0-1.3-0.5-2.3-1.5-3c-1-0.7-2.8-1.4-5.6-2
							c-5.2-1.2-8.8-2.8-11-4.8c-2.2-2-3.3-5-3.3-8.9c0-3.9,1.3-7.3,3.9-10C101.1,78.3,104.7,77,109.1,77 M109.1,72
							c-5.9,0-10.7,1.9-14.3,5.6c-3.5,3.7-5.3,8.2-5.3,13.4c0,5.3,1.6,9.6,4.9,12.6c0.3,0.3,0.7,0.6,1.1,0.9l-4.3,1.1
							c-2.6,0.7-4.3,3.3-3.7,6c1.2,5.3,3.8,9.4,7.8,12.2c3.8,2.7,8.3,4,13.5,4c6.9,0,12.3-2,16.1-5.9c3.7-3.9,5.6-8.5,5.6-13.9
							c0-3.5-0.9-6.7-2.8-9.6c-1.3-2.1-2.9-3.8-4.7-5l3.1-1.1c2.5-0.9,3.9-3.7,3-6.2C127.2,79.5,122,72,109.1,72L109.1,72z"/>
					</g>
					<g>
						<path class="st0" d="M153.6,124.5c-1.1,0-2.1-0.8-2.4-1.8l-2-7.3h-9.3l-2,7.3c-0.3,1.1-1.3,1.8-2.4,1.8h-8.3
							c-0.8,0-1.5-0.4-2-1c-0.5-0.6-0.6-1.4-0.4-2.2l13-44.3c0.3-1.1,1.3-1.8,2.4-1.8h11c1.1,0,2.1,0.7,2.4,1.8l12.7,44.3
							c0.2,0.8,0.1,1.6-0.4,2.2c-0.5,0.6-1.2,1-2,1H153.6z M145.6,102.2l-1-3.7l-1,3.7H145.6z"/>
						<path class="st1" d="M151.1,77.7l12.7,44.3h-10.2l-2.5-9.1H138l-2.5,9.1h-8.3l13-44.3H151.1 M140.3,104.7h8.6l-4.3-15.6
							L140.3,104.7 M151.1,72.7h-11c-2.2,0-4.2,1.5-4.8,3.6l-13,44.3c-0.4,1.5-0.1,3.1,0.8,4.4c0.9,1.3,2.4,2,4,2h8.3
							c2.2,0,4.2-1.5,4.8-3.7l1.5-5.5h5.5l1.5,5.4c0.6,2.2,2.6,3.7,4.8,3.7h10.2c1.6,0,3-0.7,4-2c0.9-1.3,1.2-2.9,0.8-4.4
							l-12.7-44.3C155.3,74.1,153.4,72.7,151.1,72.7L151.1,72.7z"/>
					</g>
				</g>
			</g>
		</g>
		<g>
			
				<image style="overflow:visible;opacity:0.25;" width="789" height="575" xlink:href="D027935.png"  transform="matrix(0.24 0 0 0.24 -2.9398 26.5711)">
			</image>
			<g>
				<text transform="matrix(0.9138 0 0 1 18.0181 70.4234)"><tspan x="0" y="0" class="st0 st2 st3">Pedí tu </tspan><tspan x="-14.2" y="51.6" class="st0 st4 st5">mesa</tspan></text>
			</g>
		</g>
	</g>
</g>
</svg>
