<svg xmlns="http://www.w3.org/2000/svg" viewBox="0 0 548.58 387.89"><defs><style>.a{fill:#fff;}.b{fill:#bc2911;}.c{fill:#444;}.d{fill:#040006;}</style></defs><title>icon</title><path class="a" d="M164.31,214.85V234c0,.13,0,.25,0,.38.21,9.63,8.2,27.85,36.92,27.85h131c28.73,0,36.72-18.22,36.93-27.85V214.85A74.85,74.85,0,0,0,358.32,67.46a99.13,99.13,0,0,0-183.12,0,74.86,74.86,0,0,0-10.89,147.39Z"/><path class="a" d="M509.09,326.25l-17.46-50.41a17.34,17.34,0,0,0-16.4-11.67H462.59a17.36,17.36,0,0,0-15.18,9,41.23,41.23,0,0,0-9.58-5.64,45.68,45.68,0,0,0-17.7-3.33H400.75a17.59,17.59,0,0,0-4.33.56,17.74,17.74,0,0,0-4.34-.56H378.24a17.25,17.25,0,0,0-10.12,3.25A17.39,17.39,0,0,0,358,264.17H347.21A17.29,17.29,0,0,0,336.35,268a17.31,17.31,0,0,0-10.8-3.82H312.91A17.32,17.32,0,0,0,302.08,268a17.24,17.24,0,0,0-10.89-3.85H276.14a17.28,17.28,0,0,0-10.9,3.85,17.33,17.33,0,0,0-10.9-3.85H239.21a17.23,17.23,0,0,0-11.66,4.53c-.61-.32-1.2-.67-1.83-1a41.67,41.67,0,0,0-17.82-3.85,42.57,42.57,0,0,0-17.37,3.59,43.8,43.8,0,0,0-6.59,3.64c-1-.69-2-1.36-3.14-2a45.27,45.27,0,0,0-39.34-1.44A43.21,43.21,0,0,0,128,277.31c-.25.26-.46.54-.7.81l-1.41-3.35a17.36,17.36,0,0,0-16-10.6h-3.12a17.34,17.34,0,0,0-16,10.56L75.26,311.31H70.67V281.52a17.35,17.35,0,0,0-17.35-17.35H49.7a17.35,17.35,0,0,0-17.35,17.35v50.41A17.35,17.35,0,0,0,49.7,349.29H83.43c.36,0,.71,0,1.06-.06s.57.06.85.06h3.91a17.35,17.35,0,0,0,16-10.59l2.55-6h1.07l2.55,6a17.23,17.23,0,0,0,3.89,5.65c0,.1,0,.2,0,.31v18.07a17.35,17.35,0,0,0,17.35,17.36h5a17.36,17.36,0,0,0,4.36-.55,17.34,17.34,0,0,0,4.35.55h5a17.4,17.4,0,0,0,4.58-.63,17.29,17.29,0,0,0,4.55.63h5.07a16.8,16.8,0,0,0,3.49-.36,16.78,16.78,0,0,0,3.48.36h5a17.37,17.37,0,0,0,4.56-.63,17.34,17.34,0,0,0,4.58.63h6.95a27.48,27.48,0,0,0,10-1.82,25.59,25.59,0,0,0,3.57-1.73c.77.46,1.56.88,2.39,1.27a26.66,26.66,0,0,0,21.93.14c.89-.41,1.75-.87,2.59-1.35a26.6,26.6,0,0,0,2.36,1.27,25.81,25.81,0,0,0,11.08,2.37A26.1,26.1,0,0,0,258.18,378a24.41,24.41,0,0,0,6.3-4.07,17.34,17.34,0,0,0,15.42,9.42H284a17.29,17.29,0,0,0,13.87-7,17.27,17.27,0,0,0,10.62,3.65h5a17.48,17.48,0,0,0,2.52-.19,17.59,17.59,0,0,0,2.52.19h5.6a17.41,17.41,0,0,0,4.62-.64,17.36,17.36,0,0,0,4.59.64h5a17.11,17.11,0,0,0,4.94-.73,17.16,17.16,0,0,0,4.94.73h14.33a17.21,17.21,0,0,0,4.57-.63,17.27,17.27,0,0,0,4.57.63h14.34a17.58,17.58,0,0,0,5-.74,17.53,17.53,0,0,0,5,.74h5a17.36,17.36,0,0,0,17.36-17.36V349.29h1.88a46.51,46.51,0,0,0,15.74-2.66,17.33,17.33,0,0,0,9.18,2.66h14.13a17.31,17.31,0,0,0,9.73-3,17.31,17.31,0,0,0,9.73,3H492.7a17.36,17.36,0,0,0,16.39-23Z"/><path class="b" d="M349.79,84.54a58.91,58.91,0,0,0-6,.31,81.76,81.76,0,0,0-158.25,0,58.76,58.76,0,0,0-6-.31,57.5,57.5,0,1,0,0,115V234s.24,10.88,19.58,10.88h131c19.34,0,19.57-10.88,19.57-10.88V199.53a57.5,57.5,0,1,0,0-115Z"/><path class="a" d="M309.69,137.28a45.21,45.21,0,0,0-10.93,30.27l2,77.26h-11l2-77.26a45.15,45.15,0,0,0-10.92-30.27c-6-7.12-9.92-18.54-9.92-31.43,0-21.57,10.89-39.06,24.34-39.06s24.38,17.49,24.38,39.06C319.61,118.74,315.72,130.16,309.69,137.28Z"/><path class="a" d="M249.38,69.85v56a19.8,19.8,0,0,1-6.2,14.37A32.48,32.48,0,0,0,233,164.71l2,80.1h-11l2-80.1A32.4,32.4,0,0,0,216,140.25a19.76,19.76,0,0,1-6.2-14.37v-56a3.08,3.08,0,0,1,3.14-3.06,3.14,3.14,0,0,1,3,3.17v43.5a2.54,2.54,0,1,0,5.08,0V69.85a3.08,3.08,0,0,1,3.14-3.06A3.14,3.14,0,0,1,227,70v43.5a2.54,2.54,0,1,0,5.08,0V69.85a3.08,3.08,0,0,1,3.15-3.06A3.14,3.14,0,0,1,238.2,70v43.5a2.55,2.55,0,1,0,5.09,0V70a3.14,3.14,0,0,1,2.94-3.17A3.08,3.08,0,0,1,249.38,69.85Z"/><path class="c" d="M320.47,148.06a45.15,45.15,0,0,0-10.92,30.27l1.69,66.48H300.79l1.73-66.48a43.64,43.64,0,0,0-3.34-17.7,45.71,45.71,0,0,1,10.51-23.35c6-7.12,9.92-18.54,9.92-31.43,0-10.29-2.5-19.63-6.56-26.6,10,4.83,17.34,19.73,17.34,37.38C330.39,129.53,326.5,141,320.47,148.06Z"/><path class="c" d="M232.12,113.46V79.22a3,3,0,0,0-.38,1.4v34.11A2.49,2.49,0,0,0,232.12,113.46Z"/><path class="c" d="M243.3,113.46V79.22a2.91,2.91,0,0,0-.39,1.4v34.11A2.5,2.5,0,0,0,243.3,113.46Z"/><path class="c" d="M221,113.46V79.22a3,3,0,0,0-.38,1.4v34.11A2.49,2.49,0,0,0,221,113.46Z"/><path class="c" d="M260.16,80.64v56A19.8,19.8,0,0,1,254,151a32.46,32.46,0,0,0-10.14,24.46l1.77,69.31H235.14l1.76-69.31a32.79,32.79,0,0,0-3.59-15.68,32.53,32.53,0,0,1,9.87-19.57,19.8,19.8,0,0,0,6.2-14.37v-.36a2.5,2.5,0,0,0,2.14,1.28,2.55,2.55,0,0,0,2.55-2.56V80.75A3.12,3.12,0,0,1,257,77.58,3.07,3.07,0,0,1,260.16,80.64Z"/><path class="d" d="M47.64,331.93V281.52h3.62v47.15h30.1v3.26Z"/><path class="d" d="M104.72,281.52h3.13l21.3,50.41h-3.83l-7-16.61H94.22l-7,16.61H83.28Zm12.57,30.82-11-26.42L95.07,312.34Z"/><path class="d" d="M131.78,306.3a25.16,25.16,0,0,1,6.81-17.11,26,26,0,0,1,8.1-5.75,28.07,28.07,0,0,1,23.54.81,19.73,19.73,0,0,1,8,8l-10.58,7.53a8.82,8.82,0,0,0-1.88-3,9.32,9.32,0,0,0-2.59-1.92,10.92,10.92,0,0,0-2.95-1,16,16,0,0,0-2.94-.29,10.67,10.67,0,0,0-5.15,1.17,10.54,10.54,0,0,0-3.55,3.06,13.17,13.17,0,0,0-2.06,4.26,17.19,17.19,0,0,0-.67,4.72,16.3,16.3,0,0,0,.78,5,13,13,0,0,0,2.27,4.26,11.12,11.12,0,0,0,3.66,3,10.6,10.6,0,0,0,4.86,1.1,14,14,0,0,0,2.91-.32,11,11,0,0,0,2.88-1.07,9.51,9.51,0,0,0,2.48-1.91,8.69,8.69,0,0,0,1.74-2.88l11.29,6.74a14.26,14.26,0,0,1-3.44,5,21.94,21.94,0,0,1-5.26,3.7,27.91,27.91,0,0,1-6.32,2.27,29,29,0,0,1-6.56.78,23.38,23.38,0,0,1-10.26-2.24,25.94,25.94,0,0,1-8-5.92,27.09,27.09,0,0,1-5.22-8.38A25.81,25.81,0,0,1,131.78,306.3Z"/><path class="d" d="M205.55,332.36a24.25,24.25,0,0,1-10.44-2.2,25.79,25.79,0,0,1-13.2-14,25.39,25.39,0,0,1-1.85-9.51,24.73,24.73,0,0,1,1.92-9.59,25.34,25.34,0,0,1,5.36-8.13,26.25,26.25,0,0,1,8.16-5.61,25.33,25.33,0,0,1,10.33-2.09,24.19,24.19,0,0,1,10.44,2.2,25.67,25.67,0,0,1,8,5.82,26.11,26.11,0,0,1,5.14,8.24,25.55,25.55,0,0,1,1.82,9.44,24.46,24.46,0,0,1-1.92,9.55,25.91,25.91,0,0,1-5.33,8.1,26.18,26.18,0,0,1-8.13,5.64A24.83,24.83,0,0,1,205.55,332.36ZM194.12,306.8a17.24,17.24,0,0,0,.71,4.93A12.77,12.77,0,0,0,197,316a10.56,10.56,0,0,0,8.73,4.12,10.92,10.92,0,0,0,5.19-1.17,10.57,10.57,0,0,0,3.58-3.06,12.93,12.93,0,0,0,2.06-4.29,18.16,18.16,0,0,0,.68-4.9,17.3,17.3,0,0,0-.71-4.94,12.37,12.37,0,0,0-2.17-4.19,10.71,10.71,0,0,0-8.7-4,10.93,10.93,0,0,0-5.15,1.14,10.49,10.49,0,0,0-3.58,3,12.67,12.67,0,0,0-2.1,4.26A17.65,17.65,0,0,0,194.12,306.8Z"/><path class="d" d="M275.28,331.93V305.38l-8.45,18.67h-7.39L251,305.38v26.55H237.15V281.52h15.12l10.87,23.72,10.93-23.72h15.05v50.41Z"/><path class="d" d="M310.85,281.52h12.64L341,331.93H326.9l-3.06-9.86H310.42l-3,9.86H293.31Zm10.79,31.31-4.47-15.62-4.69,15.62Z"/><path class="d" d="M359,307.15v24.78H345.14V281.52h10.8l20.23,25.63V281.52H390v50.41H379Z"/><path class="d" d="M398.68,331.93V281.52h19.38a28.28,28.28,0,0,1,11,2,22.2,22.2,0,0,1,12.78,13.38,28.87,28.87,0,0,1,1.64,9.77,28.41,28.41,0,0,1-1.82,10.4,22.45,22.45,0,0,1-5.14,7.95,23,23,0,0,1-8,5.11,28.67,28.67,0,0,1-10.44,1.81Zm30.75-25.27a17.29,17.29,0,0,0-.78-5.33,12.1,12.1,0,0,0-2.24-4.12,10.18,10.18,0,0,0-3.59-2.66,11.43,11.43,0,0,0-4.76-1h-5.53v26.27h5.53a11.33,11.33,0,0,0,4.83-1,10.11,10.11,0,0,0,3.59-2.77,12.23,12.23,0,0,0,2.2-4.19A17.62,17.62,0,0,0,429.43,306.66Z"/><path class="d" d="M460.53,281.52h12.64l17.46,50.41H476.57l-3.05-9.86H460.1l-3,9.86H443Zm10.79,31.31-4.48-15.62-4.68,15.62Z"/><path class="d" d="M148.46,367v-9.52l-3,6.69h-2.65l-3-6.69V367h-5V348.87h5.42l3.9,8.5,3.92-8.5h5.39V367Z"/><path class="d" d="M168.85,348.87h4.53L179.64,367h-5l-1.09-3.54H168.7L167.63,367h-5.07Zm3.87,11.23-1.61-5.6-1.67,5.6Z"/><path class="d" d="M188.78,367V348.87h6.95a10.27,10.27,0,0,1,4,.71,8,8,0,0,1,4.58,4.8,10.41,10.41,0,0,1,.59,3.5,10.24,10.24,0,0,1-.65,3.73,8,8,0,0,1-1.85,2.85,8.37,8.37,0,0,1-2.87,1.84,10.39,10.39,0,0,1-3.75.65Zm11-9.07a6.43,6.43,0,0,0-.28-1.91,4.36,4.36,0,0,0-.81-1.47,3.51,3.51,0,0,0-1.28-1,4.11,4.11,0,0,0-1.71-.34h-2v9.42h2a4,4,0,0,0,1.73-.36,3.71,3.71,0,0,0,1.29-1,4.48,4.48,0,0,0,.79-1.5A6.35,6.35,0,0,0,199.81,357.88Z"/><path class="d" d="M222.79,367.1a8.64,8.64,0,0,1-3.74-.79,9.13,9.13,0,0,1-4.73-5,8.93,8.93,0,0,1-.67-3.41,8.83,8.83,0,0,1,.69-3.43,9.15,9.15,0,0,1,1.92-2.92,9.43,9.43,0,0,1,2.93-2,9,9,0,0,1,3.7-.75,8.66,8.66,0,0,1,3.75.79,9,9,0,0,1,2.87,2.09A9.41,9.41,0,0,1,232,358a8.78,8.78,0,0,1-.69,3.42,9.25,9.25,0,0,1-4.82,4.92A8.93,8.93,0,0,1,222.79,367.1Zm-4.1-9.17a6.06,6.06,0,0,0,.26,1.77,4.62,4.62,0,0,0,.76,1.52,3.86,3.86,0,0,0,1.29,1.07,3.93,3.93,0,0,0,1.84.4,4,4,0,0,0,1.86-.41,3.74,3.74,0,0,0,1.29-1.1,4.89,4.89,0,0,0,.74-1.54,6.55,6.55,0,0,0,.24-1.76,6.16,6.16,0,0,0-.26-1.77,4.64,4.64,0,0,0-.77-1.5,3.91,3.91,0,0,0-1.3-1,4,4,0,0,0-1.82-.4,4,4,0,0,0-1.85.41,3.73,3.73,0,0,0-1.28,1.08,4.55,4.55,0,0,0-.75,1.53A6.05,6.05,0,0,0,218.69,357.93Z"/><path class="d" d="M249.65,362.69a2.7,2.7,0,0,0,1.48-.38,3.15,3.15,0,0,0,1-1,4.86,4.86,0,0,0,.56-1.44,7.87,7.87,0,0,0,.18-1.71v-9.29h5v9.29a12.55,12.55,0,0,1-.48,3.53,8,8,0,0,1-1.5,2.84,7.16,7.16,0,0,1-2.56,1.88,8.84,8.84,0,0,1-3.63.69,8.59,8.59,0,0,1-3.71-.73,7.13,7.13,0,0,1-2.53-1.94,8,8,0,0,1-1.45-2.84,12.74,12.74,0,0,1-.46-3.43v-9.29h5v9.29a8,8,0,0,0,.18,1.72,4.26,4.26,0,0,0,.56,1.45,3,3,0,0,0,1,1A2.81,2.81,0,0,0,249.65,362.69Z"/><path class="d" d="M282.06,370.26v-23h4.07v23Z"/><path class="d" d="M310.62,367V348.87h8.3a5.43,5.43,0,0,1,2.44.55,6.23,6.23,0,0,1,1.92,1.42,6.49,6.49,0,0,1,1.26,2,5.9,5.9,0,0,1,.46,2.27,6.37,6.37,0,0,1-.69,2.94,5.89,5.89,0,0,1-1.91,2.23l3.82,6.65h-5.6l-3.18-5.55h-1.86V367Zm5-9.88h3.13a1.08,1.08,0,0,0,.85-.51,2.23,2.23,0,0,0,.4-1.43,2,2,0,0,0-.46-1.43,1.25,1.25,0,0,0-.91-.5h-3Z"/><path class="d" d="M335.44,367V348.87h5V367Z"/><path class="d" d="M350.28,363.26l8.45-10.06h-8.07v-4.33h13.8v3.69l-7.94,10.06h8.09V367H350.28Z"/><path class="d" d="M373.75,363.26l8.45-10.06h-8.07v-4.33h13.8v3.69L380,362.62h8.09V367H373.75Z"/><path class="d" d="M398.09,367V348.87h5V367Z"/></svg>