<svg xmlns="http://www.w3.org/2000/svg" viewBox="0 0 337 330"><defs><style>.a{fill:#fff;}.b{fill:#bc2911;}.c{fill:#444;}.d{fill:#040006;}</style></defs><title>icon-simple</title><rect class="a" x="42.25" y="279.76" width="257.68" height="25.69" rx="10.67" ry="10.67"/><path class="a" d="M70.35,224.36v19c.21,9.4,8,27.17,36,27.17H234.15c28,0,35.81-17.77,36-27.17,0-.12,0-.24,0-.37V224.36A73,73,0,0,0,259.55,80.62,96.67,96.67,0,0,0,81,80.62,73,73,0,0,0,70.35,224.36Z"/><path class="b" d="M251.23,97.28a56.19,56.19,0,0,0-5.83.3,79.73,79.73,0,0,0-154.32,0,56.07,56.07,0,1,0-5.82,111.84V243s.23,10.61,19.09,10.61H232.14c18.86,0,19.09-10.61,19.09-10.61V209.42a56.07,56.07,0,1,0,0-112.14Z"/><path class="a" d="M212.12,148.71a44,44,0,0,0-10.66,29.52l1.93,75.35H192.68l1.93-75.35A44.07,44.07,0,0,0,184,148.71c-5.89-6.94-9.68-18.08-9.68-30.65C174.28,97,184.9,80,198,80s23.77,17,23.77,38.08C221.79,130.63,218,141.77,212.12,148.71Z"/><path class="a" d="M153.3,83V137.6a19.29,19.29,0,0,1-6,14,31.66,31.66,0,0,0-9.9,23.85l2,78.12h-10.7l2-78.12a31.54,31.54,0,0,0-9.89-23.85,19.29,19.29,0,0,1-6-14V83a3,3,0,0,1,3.06-3,3,3,0,0,1,2.87,3.09v42.41a2.48,2.48,0,1,0,5,0V83a3,3,0,0,1,3.07-3,3,3,0,0,1,2.87,3.09v42.41a2.48,2.48,0,1,0,5,0V83a3,3,0,0,1,3.06-3,3,3,0,0,1,2.87,3.09v42.41a2.48,2.48,0,1,0,5,0V83.07A3,3,0,0,1,150.24,80,3,3,0,0,1,153.3,83Z"/><path class="c" d="M222.63,159.23A44.05,44.05,0,0,0,212,188.75l1.65,64.83H203.44l1.68-64.83a42.4,42.4,0,0,0-3.25-17.27,44.57,44.57,0,0,1,10.25-22.77c5.88-6.94,9.67-18.08,9.67-30.65,0-10-2.44-19.14-6.39-25.94,9.78,4.71,16.91,19.24,16.91,36.45C232.31,141.15,228.52,152.29,222.63,159.23Z"/><path class="c" d="M136.48,125.49V92.09a2.93,2.93,0,0,0-.38,1.37v33.27A2.41,2.41,0,0,0,136.48,125.49Z"/><path class="c" d="M147.37,125.49V92.09a2.93,2.93,0,0,0-.38,1.37v33.27A2.41,2.41,0,0,0,147.37,125.49Z"/><path class="c" d="M125.58,125.49V92.09a2.92,2.92,0,0,0-.37,1.37v33.27A2.5,2.5,0,0,0,125.58,125.49Z"/><path class="c" d="M163.82,93.47v54.65a19.26,19.26,0,0,1-6,14A31.67,31.67,0,0,0,147.88,186l1.73,67.6H139.42l1.71-67.6a31.82,31.82,0,0,0-3.5-15.29,31.77,31.77,0,0,1,9.63-19.08,19.29,19.29,0,0,0,6-14v-.35a2.43,2.43,0,0,0,2.09,1.24,2.48,2.48,0,0,0,2.49-2.49V93.58a3.06,3.06,0,0,1,2.87-3.09A3,3,0,0,1,163.82,93.47Z"/><path class="d" d="M71.58,299.77V292l-2.47,5.44H67L64.5,292v7.73h-4V285.08h4.4L68,292l3.18-6.92h4.39v14.69Z"/><path class="d" d="M88.15,285.08h3.68l5.09,14.69h-4.1l-.89-2.87H88l-.87,2.87H83Zm3.14,9.13L90,289.66l-1.37,4.55Z"/><path class="d" d="M104.34,299.77V285.08H110a8.24,8.24,0,0,1,3.21.59,6.49,6.49,0,0,1,3.72,3.89,8.82,8.82,0,0,1,0,5.88,6.54,6.54,0,0,1-1.5,2.32,6.89,6.89,0,0,1-2.34,1.49,8.4,8.4,0,0,1-3,.52Zm9-7.36a5,5,0,0,0-.23-1.55,3.46,3.46,0,0,0-.65-1.2,3,3,0,0,0-1-.78,3.48,3.48,0,0,0-1.39-.28h-1.61v7.66H110a3.38,3.38,0,0,0,1.41-.29,3.08,3.08,0,0,0,1-.81,3.46,3.46,0,0,0,.64-1.22A5,5,0,0,0,113.3,292.41Z"/><path class="d" d="M132,299.9a7.16,7.16,0,0,1-3-.64,7.55,7.55,0,0,1-2.34-1.69,7.63,7.63,0,0,1-1.51-2.39,7.38,7.38,0,0,1-.54-2.77,7.2,7.2,0,0,1,.56-2.79,7.29,7.29,0,0,1,1.56-2.37,7.66,7.66,0,0,1,2.38-1.64,7.46,7.46,0,0,1,3-.61,7.16,7.16,0,0,1,3,.64,7.58,7.58,0,0,1,2.34,1.7,7.69,7.69,0,0,1,2,5.15,7.15,7.15,0,0,1-.56,2.78,7.5,7.5,0,0,1-1.55,2.36,7.58,7.58,0,0,1-2.37,1.65A7.3,7.3,0,0,1,132,299.9Zm-3.33-7.45a4.92,4.92,0,0,0,.21,1.44,3.57,3.57,0,0,0,.62,1.23,3,3,0,0,0,1,.87,3.19,3.19,0,0,0,1.5.33,3.07,3.07,0,0,0,2.56-1.23,3.81,3.81,0,0,0,.6-1.25,5.35,5.35,0,0,0,.19-1.43,5.27,5.27,0,0,0-.2-1.44,3.63,3.63,0,0,0-.63-1.22,3.4,3.4,0,0,0-1.06-.85,3.26,3.26,0,0,0-1.48-.32,3.19,3.19,0,0,0-1.5.33,3.07,3.07,0,0,0-1,.88,3.68,3.68,0,0,0-.61,1.24A4.92,4.92,0,0,0,128.65,292.45Z"/><path class="d" d="M153.81,296.32A2.28,2.28,0,0,0,155,296a2.41,2.41,0,0,0,.8-.82,3.81,3.81,0,0,0,.46-1.17,6.21,6.21,0,0,0,.14-1.38v-7.56h4v7.56a9.79,9.79,0,0,1-.4,2.86,6.1,6.1,0,0,1-1.22,2.31,5.67,5.67,0,0,1-2.08,1.53,7.17,7.17,0,0,1-2.94.56,7,7,0,0,1-3-.59,5.73,5.73,0,0,1-2.06-1.58,6.49,6.49,0,0,1-1.18-2.31,10.09,10.09,0,0,1-.37-2.78v-7.56h4v7.56a6.37,6.37,0,0,0,.15,1.39,3.54,3.54,0,0,0,.45,1.18,2.39,2.39,0,0,0,.8.81A2.21,2.21,0,0,0,153.81,296.32Z"/><path class="d" d="M180.14,302.46V283.74h3.31v18.72Z"/><path class="d" d="M203.35,299.77V285.08h6.74a4.44,4.44,0,0,1,2,.45,5,5,0,0,1,1.56,1.16,5.31,5.31,0,0,1,1,1.63,4.88,4.88,0,0,1,.37,1.85,5.22,5.22,0,0,1-.56,2.39,4.78,4.78,0,0,1-1.55,1.81l3.1,5.4h-4.55l-2.59-4.51h-1.51v4.51Zm4-8h2.55a.88.88,0,0,0,.69-.42,1.8,1.8,0,0,0,.32-1.16,1.62,1.62,0,0,0-.37-1.16,1.06,1.06,0,0,0-.74-.41h-2.45Z"/><path class="d" d="M223.52,299.77V285.08h4v14.69Z"/><path class="d" d="M235.58,296.77l6.87-8.17h-6.56v-3.52H247.1v3l-6.45,8.18h6.58v3.51H235.58Z"/><path class="d" d="M254.66,296.77l6.86-8.17H255v-3.52h11.21v3l-6.46,8.18h6.58v3.51H254.66Z"/><path class="d" d="M274.43,299.77V285.08h4v14.69Z"/></svg>